<svg width="213" height="21" viewBox="0 0 213 21" fill="none" xmlns="http://www.w3.org/2000/svg">
<path d="M3.16294 17H0.714936V3.224L3.73894 1.52V7.328C4.07494 6.816 4.54694 6.416 5.15494 6.128C5.63494 5.904 6.16294 5.792 6.73894 5.792C8.35494 5.792 9.61894 6.344 10.5309 7.448C11.3309 8.424 11.7309 9.72 11.7309 11.336C11.7309 13.416 11.1389 14.992 9.95494 16.064C9.02694 16.88 7.88294 17.288 6.52294 17.288C5.17894 17.288 4.13894 16.832 3.40294 15.92L3.16294 17ZM3.73894 10.472V13.088C3.78694 13.68 4.02694 14.176 4.45894 14.576C4.90694 14.976 5.42694 15.176 6.01894 15.176C6.78694 15.176 7.39494 14.856 7.84294 14.216C8.29094 13.576 8.51494 12.696 8.51494 11.576C8.51494 10.472 8.30694 9.6 7.89094 8.96C7.47494 8.32 6.89894 8 6.16294 8C5.49094 8 4.91494 8.24 4.43494 8.72C3.97094 9.2 3.73894 9.784 3.73894 10.472ZM23.4801 17H21.0561L20.8161 15.968C19.7601 16.848 18.6881 17.288 17.6001 17.288C15.1841 17.288 13.9761 16.112 13.9761 13.76C13.9761 12.592 14.4801 11.68 15.4881 11.024C16.5121 10.352 18.0241 10.016 20.0241 10.016H20.5281V9.968C20.5281 9.28 20.3841 8.808 20.0961 8.552C19.8081 8.296 19.2881 8.168 18.5361 8.168C17.4801 8.168 16.5121 8.504 15.6321 9.176C15.3441 8.648 15.0721 8.128 14.8161 7.616C15.7281 6.912 16.5201 6.44 17.1921 6.2C17.8801 5.944 18.6961 5.816 19.6401 5.816C22.2001 5.816 23.4801 7.416 23.4801 10.616V17ZM20.4321 11.864H20.0721C19.1601 11.864 18.4241 12.024 17.8641 12.344C17.3041 12.664 17.0241 13.088 17.0241 13.616C17.0241 14.608 17.4561 15.104 18.3201 15.104C18.8481 15.104 19.3121 14.952 19.7121 14.648C20.1121 14.344 20.3521 13.96 20.4321 13.496V11.864ZM30.2469 1.52V17H27.2229V3.104L30.2469 1.52ZM42.7682 17H40.3442L40.1042 15.968C39.0482 16.848 37.9762 17.288 36.8882 17.288C34.4722 17.288 33.2642 16.112 33.2642 13.76C33.2642 12.592 33.7682 11.68 34.7762 11.024C35.8002 10.352 37.3122 10.016 39.3122 10.016H39.8162V9.968C39.8162 9.28 39.6722 8.808 39.3842 8.552C39.0962 8.296 38.5762 8.168 37.8242 8.168C36.7682 8.168 35.8002 8.504 34.9202 9.176C34.6322 8.648 34.3602 8.128 34.1042 7.616C35.0162 6.912 35.8082 6.44 36.4802 6.2C37.1682 5.944 37.9842 5.816 38.9282 5.816C41.4882 5.816 42.7682 7.416 42.7682 10.616V17ZM39.7202 11.864H39.3602C38.4482 11.864 37.7122 12.024 37.1522 12.344C36.5922 12.664 36.3122 13.088 36.3122 13.616C36.3122 14.608 36.7442 15.104 37.6082 15.104C38.1362 15.104 38.6002 14.952 39.0002 14.648C39.4002 14.344 39.6402 13.96 39.7202 13.496V11.864ZM49.4391 7.16C49.7591 6.792 50.2391 6.48 50.8791 6.224C51.5191 5.952 52.1271 5.816 52.7031 5.816C54.0791 5.816 55.0711 6.192 55.6791 6.944C56.3031 7.696 56.6151 8.912 56.6151 10.592V17H53.5671V10.712C53.5671 9.144 52.8711 8.36 51.4791 8.36C51.1271 8.36 50.7511 8.44 50.3511 8.6C49.9511 8.744 49.6791 8.912 49.5351 9.104V17H46.5111V6.104H49.0791C49.1591 6.52 49.2391 6.872 49.3191 7.16H49.4391ZM63.7373 18.32L64.0733 17.168C62.5852 16.912 61.4252 16.224 60.5932 15.104C59.8732 14.128 59.5132 12.96 59.5132 11.6C59.5132 9.84 60.1212 8.4 61.3372 7.28C62.3932 6.304 63.6812 5.816 65.2012 5.816C66.8813 5.816 68.2333 6.344 69.2573 7.4L68.3453 9.032C67.5293 8.312 66.6413 7.952 65.6813 7.952C64.7852 7.952 64.0492 8.304 63.4732 9.008C62.8972 9.696 62.6092 10.584 62.6092 11.672C62.6092 12.68 62.8892 13.512 63.4492 14.168C64.0252 14.808 64.7532 15.128 65.6332 15.128C66.6893 15.128 67.5933 14.736 68.3453 13.952L69.3773 15.608C68.4333 16.536 67.3613 17.08 66.1613 17.24L66.0412 17.576H66.1853C66.6332 17.576 66.9933 17.712 67.2653 17.984C67.5533 18.256 67.6972 18.616 67.6972 19.064C67.6972 19.656 67.4732 20.12 67.0252 20.456C66.5773 20.792 65.9692 20.96 65.2012 20.96C64.4172 20.96 63.6972 20.832 63.0412 20.576L63.3773 19.376C63.9533 19.52 64.3932 19.592 64.6972 19.592C65.3053 19.592 65.6093 19.384 65.6093 18.968C65.6093 18.504 65.2493 18.272 64.5292 18.272C64.2413 18.272 63.9773 18.288 63.7373 18.32ZM76.8547 5.816C78.6467 5.816 80.0387 6.448 81.0307 7.712C81.8627 8.768 82.2787 10.056 82.2787 11.576C82.2787 13.352 81.6627 14.792 80.4307 15.896C79.4067 16.824 78.2147 17.288 76.8547 17.288C75.2707 17.288 73.9427 16.696 72.8707 15.512C71.9107 14.44 71.4307 13.128 71.4307 11.576C71.4307 9.816 71.9667 8.392 73.0387 7.304C74.0147 6.312 75.2867 5.816 76.8547 5.816ZM76.8547 15.032C78.4067 15.032 79.1827 13.88 79.1827 11.576C79.1827 9.176 78.4067 7.976 76.8547 7.976C75.3027 7.976 74.5267 9.176 74.5267 11.576C74.5267 13.88 75.3027 15.032 76.8547 15.032ZM100.676 8.552H95.4441V17H92.4201V8.552H90.7161V6.104H92.4201V4.664C92.4201 2.568 93.3961 1.52 95.3481 1.52C96.6281 1.52 97.8201 1.952 98.9241 2.816L97.8201 4.4C97.1801 3.984 96.6361 3.776 96.1881 3.776C95.6921 3.776 95.4441 4.176 95.4441 4.976V6.104H103.724V17H100.676V8.552ZM100.316 3.32C100.316 2.808 100.492 2.368 100.844 2C101.212 1.616 101.644 1.424 102.14 1.424C102.668 1.424 103.116 1.608 103.484 1.976C103.868 2.344 104.06 2.792 104.06 3.32C104.06 3.88 103.876 4.336 103.508 4.688C103.156 5.04 102.7 5.216 102.14 5.216C101.612 5.216 101.172 5.04 100.82 4.688C100.484 4.32 100.316 3.864 100.316 3.32ZM110.245 7.16C110.565 6.792 111.045 6.48 111.685 6.224C112.325 5.952 112.933 5.816 113.509 5.816C114.885 5.816 115.877 6.192 116.485 6.944C117.109 7.696 117.421 8.912 117.421 10.592V17H114.373V10.712C114.373 9.144 113.677 8.36 112.285 8.36C111.933 8.36 111.557 8.44 111.157 8.6C110.757 8.744 110.485 8.912 110.341 9.104V17H107.317V6.104H109.885C109.965 6.52 110.045 6.872 110.125 7.16H110.245ZM129.824 17H127.4L127.16 15.968C126.104 16.848 125.032 17.288 123.944 17.288C121.528 17.288 120.32 16.112 120.32 13.76C120.32 12.592 120.824 11.68 121.832 11.024C122.856 10.352 124.368 10.016 126.368 10.016H126.872V9.968C126.872 9.28 126.728 8.808 126.44 8.552C126.152 8.296 125.632 8.168 124.88 8.168C123.824 8.168 122.856 8.504 121.976 9.176C121.688 8.648 121.416 8.128 121.16 7.616C122.072 6.912 122.864 6.44 123.536 6.2C124.224 5.944 125.04 5.816 125.984 5.816C128.544 5.816 129.824 7.416 129.824 10.616V17ZM126.776 11.864H126.416C125.504 11.864 124.768 12.024 124.208 12.344C123.648 12.664 123.368 13.088 123.368 13.616C123.368 14.608 123.8 15.104 124.664 15.104C125.192 15.104 125.656 14.952 126.056 14.648C126.456 14.344 126.696 13.96 126.776 13.496V11.864ZM136.494 7.16C136.814 6.792 137.294 6.48 137.934 6.224C138.574 5.952 139.182 5.816 139.758 5.816C141.134 5.816 142.126 6.192 142.734 6.944C143.358 7.696 143.67 8.912 143.67 10.592V17H140.622V10.712C140.622 9.144 139.926 8.36 138.534 8.36C138.182 8.36 137.806 8.44 137.406 8.6C137.006 8.744 136.734 8.912 136.59 9.104V17H133.566V6.104H136.134C136.214 6.52 136.294 6.872 136.374 7.16H136.494ZM156.433 15.608C155.297 16.728 153.953 17.288 152.401 17.288C150.545 17.288 149.073 16.696 147.985 15.512C147.041 14.472 146.569 13.168 146.569 11.6C146.569 9.84 147.177 8.4 148.393 7.28C149.449 6.304 150.737 5.816 152.257 5.816C153.937 5.816 155.289 6.344 156.313 7.4L155.401 9.032C154.585 8.312 153.697 7.952 152.737 7.952C151.841 7.952 151.105 8.304 150.529 9.008C149.953 9.696 149.665 10.584 149.665 11.672C149.665 12.68 149.945 13.512 150.505 14.168C151.081 14.808 151.809 15.128 152.689 15.128C153.745 15.128 154.649 14.736 155.401 13.952L156.433 15.608ZM169.286 12.536H161.798C161.862 13.272 162.158 13.888 162.686 14.384C163.23 14.864 163.87 15.104 164.606 15.104C165.646 15.104 166.734 14.784 167.87 14.144L168.638 15.752C167.486 16.776 166.046 17.288 164.318 17.288C162.462 17.288 161.014 16.76 159.974 15.704C158.982 14.712 158.486 13.344 158.486 11.6C158.486 9.888 159.046 8.472 160.166 7.352C161.174 6.328 162.454 5.816 164.006 5.816C165.734 5.816 167.078 6.4 168.038 7.568C168.87 8.56 169.286 9.848 169.286 11.432V12.536ZM161.63 10.304H166.262C166.182 8.736 165.422 7.952 163.982 7.952C162.59 7.952 161.806 8.736 161.63 10.304ZM175.247 6.104V17H172.199V6.104H175.247ZM171.839 3.32C171.839 2.808 172.015 2.368 172.367 2C172.735 1.616 173.167 1.424 173.663 1.424C174.191 1.424 174.639 1.608 175.007 1.976C175.391 2.344 175.583 2.792 175.583 3.32C175.583 3.88 175.399 4.336 175.031 4.688C174.679 5.04 174.223 5.216 173.663 5.216C173.135 5.216 172.695 5.04 172.343 4.688C172.007 4.32 171.839 3.864 171.839 3.32ZM181.414 6.104L181.702 7.064C181.862 6.728 182.166 6.44 182.614 6.2C183.078 5.944 183.55 5.816 184.03 5.816C185.47 5.816 186.542 6.496 187.246 7.856L184.702 9.248C184.174 8.64 183.614 8.336 183.022 8.336C182.478 8.336 182.078 8.616 181.822 9.176V17H178.846V6.104H181.414ZM193.428 5.816C195.22 5.816 196.612 6.448 197.604 7.712C198.436 8.768 198.852 10.056 198.852 11.576C198.852 13.352 198.236 14.792 197.004 15.896C195.98 16.824 194.788 17.288 193.428 17.288C191.844 17.288 190.516 16.696 189.444 15.512C188.484 14.44 188.004 13.128 188.004 11.576C188.004 9.816 188.54 8.392 189.612 7.304C190.588 6.312 191.86 5.816 193.428 5.816ZM193.428 15.032C194.98 15.032 195.756 13.88 195.756 11.576C195.756 9.176 194.98 7.976 193.428 7.976C191.876 7.976 191.1 9.176 191.1 11.576C191.1 13.88 191.876 15.032 193.428 15.032Z" fill="white"/>
<path d="M207.404 0.199999V1.544C208.924 1.592 210.404 2.096 211.844 3.056L210.5 5C209.316 4.504 208.284 4.24 207.404 4.208V7.592C210.62 8.824 212.228 10.512 212.228 12.656C212.228 14.176 211.708 15.352 210.668 16.184C209.82 16.872 208.732 17.232 207.404 17.264V18.776H206.228V17.264C204.836 17.12 203.356 16.56 201.788 15.584C201.948 15.344 202.204 14.992 202.556 14.528C202.828 14.176 203.036 13.896 203.18 13.688C203.34 13.816 203.804 13.976 204.572 14.168C205.34 14.36 205.892 14.456 206.228 14.456V10.184C204.724 9.592 203.652 8.952 203.012 8.264C202.388 7.56 202.076 6.688 202.076 5.648C202.076 4.528 202.444 3.608 203.18 2.888C203.932 2.168 204.948 1.736 206.228 1.592V0.199999H207.404ZM207.404 14.432C208.396 14.352 208.892 13.808 208.892 12.8C208.892 11.952 208.396 11.272 207.404 10.76V14.432ZM206.228 4.232C205.636 4.472 205.34 4.944 205.34 5.648C205.34 6.224 205.636 6.704 206.228 7.088V4.232Z" fill="#0EAB3A"/>
</svg>
